<svg width="24" height="24" viewBox="0 0 24 24" fill="none" xmlns="http://www.w3.org/2000/svg">
<path d="M9.56248 13.1249C9.56248 13.3104 9.5075 13.4916 9.40449 13.6458C9.30147 13.8 9.15506 13.9201 8.98375 13.9911C8.81245 14.062 8.62394 14.0806 8.44209 14.0444C8.26023 14.0083 8.09318 13.919 7.96207 13.7879C7.83096 13.6567 7.74167 13.4897 7.7055 13.3078C7.66932 13.126 7.68789 12.9375 7.75885 12.7662C7.82981 12.5949 7.94997 12.4485 8.10414 12.3454C8.25831 12.2424 8.43957 12.1874 8.62498 12.1874C8.87363 12.1874 9.11208 12.2862 9.2879 12.462C9.46371 12.6378 9.56248 12.8763 9.56248 13.1249ZM15.375 12.1874C15.1896 12.1874 15.0083 12.2424 14.8541 12.3454C14.7 12.4485 14.5798 12.5949 14.5088 12.7662C14.4379 12.9375 14.4193 13.126 14.4555 13.3078C14.4917 13.4897 14.581 13.6567 14.7121 13.7879C14.8432 13.919 15.0102 14.0083 15.1921 14.0444C15.3739 14.0806 15.5624 14.062 15.7337 13.9911C15.9051 13.9201 16.0515 13.8 16.1545 13.6458C16.2575 13.4916 16.3125 13.3104 16.3125 13.1249C16.3125 12.8763 16.2137 12.6378 16.0379 12.462C15.8621 12.2862 15.6236 12.1874 15.375 12.1874ZM22.2787 17.9137L15.9975 20.699C15.8269 20.7736 15.6427 20.8123 15.4565 20.8124C15.1864 20.8127 14.9227 20.7305 14.7007 20.5766C14.4787 20.4228 14.309 20.2048 14.2144 19.9518L13.4062 17.759C12.944 17.7937 12.4762 17.8134 12 17.8134C11.5237 17.8134 11.0569 17.7937 10.5937 17.759L9.78467 19.9518C9.69011 20.2047 9.52056 20.4226 9.29872 20.5764C9.07689 20.7302 8.81336 20.8125 8.54342 20.8124C8.35722 20.8123 8.17307 20.7736 8.00249 20.699L1.72124 17.9137C1.43819 17.7888 1.20837 17.5679 1.07235 17.29C0.936325 17.0121 0.902838 16.6951 0.977797 16.3949L3.74998 5.48432C3.81354 5.23629 3.9479 5.01213 4.13668 4.83917C4.32545 4.6662 4.56049 4.55192 4.81311 4.51025L8.19374 3.95525C8.5201 3.90216 8.85454 3.97251 9.13185 4.15259C9.40917 4.33268 9.60948 4.60958 9.69374 4.92932L10.0397 6.2915C11.3429 6.15275 12.6571 6.15275 13.9603 6.2915L14.3062 4.92932C14.3905 4.60958 14.5908 4.33268 14.8681 4.15259C15.1454 3.97251 15.4799 3.90216 15.8062 3.95525L19.1869 4.51025C19.4395 4.55192 19.6745 4.6662 19.8633 4.83917C20.0521 5.01213 20.1864 5.23629 20.25 5.48432L23.0184 16.3949C23.0936 16.6947 23.0607 17.0113 22.9254 17.2891C22.7901 17.567 22.5611 17.7881 22.2787 17.9137ZM21.9319 16.6715L19.1634 5.76088C19.1533 5.72453 19.1329 5.6919 19.1046 5.66694C19.0763 5.64198 19.0414 5.62576 19.004 5.62025L15.6234 5.06244C15.5749 5.05376 15.5249 5.06332 15.483 5.08928C15.4412 5.11524 15.4103 5.15576 15.3965 5.20307L15.0815 6.44432C15.6106 6.53518 16.1347 6.65283 16.6519 6.79682C16.7855 6.83115 16.9019 6.91341 16.9788 7.02796C17.0558 7.14252 17.088 7.28136 17.0692 7.41807C17.0504 7.55479 16.9821 7.67984 16.8771 7.76944C16.7722 7.85904 16.638 7.90693 16.5 7.904C16.4486 7.90414 16.3974 7.89688 16.3481 7.88244C14.9309 7.49789 13.4684 7.30616 12 7.31244C10.5316 7.30616 9.06903 7.49789 7.65186 7.88244C7.5801 7.90463 7.50461 7.91221 7.42987 7.90476C7.35513 7.8973 7.28263 7.87495 7.21667 7.83902C7.1507 7.80309 7.0926 7.75431 7.04579 7.69556C6.99898 7.63682 6.96441 7.56929 6.94413 7.49696C6.92384 7.42464 6.91824 7.34899 6.92766 7.27446C6.93709 7.19994 6.96134 7.12806 6.999 7.06307C7.03665 6.99807 7.08694 6.94127 7.1469 6.89603C7.20686 6.85078 7.27528 6.818 7.34811 6.79963C7.86525 6.65565 8.38936 6.53799 8.91842 6.44713L8.60342 5.20588C8.59038 5.15794 8.55985 5.11662 8.51786 5.09008C8.47586 5.06353 8.42545 5.05367 8.37655 5.06244L4.99592 5.62494C4.9586 5.63045 4.92368 5.64667 4.89539 5.67163C4.8671 5.69659 4.84666 5.72922 4.83655 5.76557L2.06811 16.6715C2.05841 16.7142 2.06398 16.759 2.08384 16.798C2.10371 16.8371 2.13662 16.8679 2.17686 16.8853L8.45811 19.6696C8.48412 19.681 8.51221 19.6869 8.54061 19.6869C8.56901 19.6869 8.5971 19.681 8.62311 19.6696C8.64743 19.6596 8.66945 19.6446 8.68783 19.6258C8.7062 19.6069 8.72054 19.5845 8.72999 19.5599L9.44061 17.6334C8.73392 17.535 8.03456 17.3897 7.34717 17.1984C7.27434 17.18 7.20592 17.1472 7.14596 17.102C7.086 17.0567 7.03571 16.9999 6.99806 16.9349C6.96041 16.8699 6.93615 16.7981 6.92673 16.7235C6.9173 16.649 6.9229 16.5734 6.94319 16.501C6.96348 16.4287 6.99804 16.3612 7.04485 16.3024C7.09166 16.2437 7.14976 16.1949 7.21573 16.159C7.28169 16.1231 7.35419 16.1007 7.42893 16.0933C7.50368 16.0858 7.57916 16.0934 7.65092 16.1156C9.06831 16.5008 10.5312 16.6932 12 16.6874C13.4684 16.6937 14.9309 16.502 16.3481 16.1174C16.4199 16.0953 16.4954 16.0877 16.5701 16.0951C16.6448 16.1026 16.7173 16.1249 16.7833 16.1609C16.8493 16.1968 16.9074 16.2456 16.9542 16.3043C17.001 16.3631 17.0356 16.4306 17.0558 16.5029C17.0761 16.5752 17.0817 16.6509 17.0723 16.7254C17.0629 16.7999 17.0386 16.8718 17.001 16.9368C16.9633 17.0018 16.913 17.0586 16.8531 17.1039C16.7931 17.1491 16.7247 17.1819 16.6519 17.2003C15.9645 17.3916 15.2651 17.5369 14.5584 17.6353L15.269 19.5618C15.2785 19.5864 15.2928 19.6088 15.3112 19.6276C15.3296 19.6465 15.3516 19.6614 15.3759 19.6715C15.4019 19.6829 15.43 19.6888 15.4584 19.6888C15.4868 19.6888 15.5149 19.6829 15.5409 19.6715L21.8222 16.8871C21.863 16.8699 21.8964 16.8388 21.9164 16.7994C21.9365 16.7599 21.942 16.7146 21.9319 16.6715Z" fill="black"/>
</svg>
