<svg width="24" height="24" viewBox="0 0 24 24" fill="none" xmlns="http://www.w3.org/2000/svg">
<path d="M22.0847 2.59688C21.9942 2.51876 21.8842 2.46681 21.7664 2.44666C21.6486 2.4265 21.5275 2.4389 21.4163 2.4825L2.41688 9.91782C2.18578 10.0082 1.99026 10.1712 1.85968 10.3822C1.7291 10.5932 1.67051 10.8409 1.6927 11.0881C1.71489 11.3352 1.81667 11.5685 1.98275 11.7529C2.14883 11.9373 2.37025 12.0628 2.61375 12.1106L7.6875 13.1072V18.75C7.68761 19.0116 7.76588 19.2672 7.91228 19.484C8.05869 19.7008 8.26653 19.8689 8.50915 19.9667C8.75177 20.0646 9.01809 20.0877 9.27393 20.0331C9.52977 19.9785 9.76346 19.8487 9.945 19.6603L12.4425 17.07L16.3406 20.4872C16.5786 20.6978 16.8854 20.8141 17.2031 20.8144C17.3419 20.8141 17.4798 20.7922 17.6119 20.7497C17.8284 20.6812 18.0232 20.5571 18.1769 20.3898C18.3305 20.2225 18.4376 20.0178 18.4875 19.7963L22.2956 3.24094C22.3224 3.12455 22.3169 3.00307 22.2797 2.88957C22.2426 2.77608 22.1751 2.67488 22.0847 2.59688ZM2.81719 11.0034C2.8136 10.9938 2.8136 10.9831 2.81719 10.9734C2.82142 10.9702 2.82618 10.9676 2.83125 10.9659L17.8041 5.10469L8.11969 12.0422L2.83125 11.0072L2.81719 11.0034ZM9.135 18.8784C9.10916 18.9053 9.07592 18.9238 9.03952 18.9316C9.00313 18.9395 8.96521 18.9363 8.93062 18.9225C8.89603 18.9087 8.86632 18.885 8.84528 18.8543C8.82424 18.8235 8.81283 18.7872 8.8125 18.75V13.8853L11.5959 16.3228L9.135 18.8784ZM17.3916 19.5422C17.3847 19.5739 17.3693 19.6031 17.3472 19.6269C17.3251 19.6506 17.2971 19.668 17.2659 19.6772C17.2342 19.6883 17.2 19.6907 17.167 19.6841C17.1341 19.6775 17.1035 19.6622 17.0784 19.6397L9.15375 12.6881L20.9063 4.26563L17.3916 19.5422Z" fill="black"/>
</svg>
