<svg width="40" height="41" viewBox="0 0 40 41" fill="none" xmlns="http://www.w3.org/2000/svg">
<path d="M20 27.6428C23.9449 27.6428 27.1428 24.4449 27.1428 20.5C27.1428 16.5551 23.9449 13.3571 20 13.3571C16.0551 13.3571 12.8571 16.5551 12.8571 20.5C12.8571 24.4449 16.0551 27.6428 20 27.6428Z" stroke="white" stroke-width="2.05714" stroke-miterlimit="10"/>
<path d="M10 11.9286L5.71429 9.07144L10 6.21429L10 11.9286Z" fill="white"/>
<path d="M30 29.0714L34.2857 31.9286L30 34.7857V29.0714Z" fill="white"/>
<path d="M10 11.9286L5.71429 9.07144L10 6.21429L10 11.9286Z" stroke="white" stroke-width="2.05714" stroke-miterlimit="10" stroke-linecap="square"/>
<path d="M10 9.07141L15.7143 9.07141" stroke="white" stroke-width="2.05714" stroke-miterlimit="10" stroke-linecap="square"/>
<path d="M30 29.0714L34.2857 31.9286L30 34.7857V29.0714Z" stroke="white" stroke-width="2.05714" stroke-miterlimit="10" stroke-linecap="square"/>
<path d="M30 31.9286H24.2857" stroke="white" stroke-width="2.05714" stroke-miterlimit="10" stroke-linecap="square"/>
</svg>
