<svg width="40" height="41" viewBox="0 0 40 41" fill="none" xmlns="http://www.w3.org/2000/svg">
<path d="M26.6671 24.7857H35.7143V19.1572C35.7143 18.1786 35.2014 17.2715 34.3614 16.7686L30.3257 14.3472" stroke="white" stroke-width="2.05714" stroke-miterlimit="10"/>
<path d="M21.7829 7.92713C22.52 6.08285 24.3214 4.78571 26.4286 4.78571C29.19 4.78571 31.4286 7.02428 31.4286 9.78571V11.2143C31.4286 13.9757 29.19 16.2143 26.4286 16.2143C25.6471 16.2143 24.9443 16.0428 24.2857 15.7228" stroke="white" stroke-width="2.05714" stroke-miterlimit="10"/>
<path d="M12.6543 21.7714L6.15858 25.6629C4.99715 26.3586 4.28572 27.6143 4.28572 28.97L4.28572 34.7857L30 34.7857L30 28.97C30 27.6157 29.2886 26.36 28.1271 25.6629L21.6314 21.7714" stroke="white" stroke-width="2.05714" stroke-miterlimit="10"/>
<path d="M17.1429 23.3572C13.1986 23.3572 10 20.1586 10 16.2143V13.3572C10 9.41287 13.1986 6.21429 17.1429 6.21429C21.0871 6.21429 24.2857 9.41287 24.2857 13.3572V16.2143C24.2857 20.1586 21.0871 23.3572 17.1429 23.3572Z" stroke="white" stroke-width="2.05714" stroke-miterlimit="10" stroke-linecap="square"/>
</svg>
