<svg width="24" height="24" viewBox="0 0 24 24" fill="none" xmlns="http://www.w3.org/2000/svg">
<path fill-rule="evenodd" clip-rule="evenodd" d="M17.1306 16.3271L15.0498 14.2396L15.0897 14.1834C15.5421 13.5452 15.7851 12.7822 15.7851 12C15.7851 11.2177 15.5421 10.4547 15.0897 9.81657L15.0498 9.76033L17.1306 7.67285L17.1857 7.70666C17.5599 7.93627 17.9898 8.05883 18.4288 8.06101C18.9212 8.06096 19.4024 7.91495 19.8118 7.64143C20.2212 7.36787 20.5403 6.97905 20.7287 6.52413C20.9171 6.06921 20.9664 5.56864 20.8704 5.0857C20.7743 4.60276 20.5372 4.15916 20.189 3.81098C19.8408 3.4628 19.3972 3.22569 18.9143 3.12963C18.4314 3.03356 17.9308 3.08287 17.4759 3.2713C17.0209 3.45973 16.6321 3.77883 16.3586 4.18824C16.085 4.59759 15.939 5.07884 15.939 5.57116C15.9412 6.01016 16.0637 6.44015 16.2933 6.81432L16.3271 6.86942L14.2397 8.95016L14.1834 8.91029C13.5452 8.45788 12.7823 8.21488 12 8.21488C11.2178 8.21488 10.4548 8.45788 9.81663 8.91029L9.76039 8.95016L7.67291 6.86942L7.70672 6.81432C7.93633 6.44015 8.0589 6.01016 8.06107 5.57116C8.06102 5.07884 7.91501 4.59759 7.64149 4.18824C7.36793 3.77883 6.97911 3.45973 6.52419 3.2713C6.06927 3.08287 5.5687 3.03356 5.08576 3.12963C4.60282 3.22569 4.15922 3.4628 3.81104 3.81098C3.46286 4.15916 3.22575 4.60276 3.12969 5.0857C3.03362 5.56864 3.08293 6.06921 3.27136 6.52413C3.45979 6.97905 3.77889 7.36787 4.18831 7.64143C4.59765 7.91495 5.07891 8.06096 5.57122 8.06101C6.01022 8.05883 6.44021 7.93627 6.81438 7.70666L6.86948 7.67285L8.95022 9.76033L8.91035 9.81657C8.45794 10.4547 8.21494 11.2177 8.21494 12C8.21494 12.7822 8.45794 13.5452 8.91035 14.1834L8.95022 14.2396L6.86948 16.3271L6.81438 16.2933C6.44021 16.0637 6.01022 15.9411 5.57122 15.9389C5.0789 15.939 4.59765 16.085 4.18831 16.3585C3.77889 16.6321 3.45979 17.0209 3.27136 17.4758C3.08293 17.9307 3.03362 18.4313 3.12969 18.9142C3.22575 19.3972 3.46286 19.8408 3.81104 20.189C4.15922 20.5371 4.60282 20.7743 5.08576 20.8703C5.5687 20.9664 6.06927 20.9171 6.52419 20.7286C6.97911 20.5402 7.36793 20.2211 7.64149 19.8117C7.91501 19.4023 8.06102 18.9211 8.06107 18.4288C8.05889 17.9898 7.93633 17.5598 7.70672 17.1856L7.67291 17.1305L9.76039 15.0498L9.81663 15.0896C10.4548 15.5421 11.2178 15.7851 12 15.7851C12.7823 15.7851 13.5452 15.5421 14.1834 15.0896L14.2397 15.0498L16.3271 17.1305L16.2933 17.1856C16.0637 17.5598 15.9412 17.9898 15.939 18.4288C15.939 18.9211 16.085 19.4023 16.3586 19.8117C16.6321 20.2211 17.0209 20.5402 17.4759 20.7286C17.9308 20.9171 18.4314 20.9664 18.9143 20.8703C19.3972 20.7743 19.8408 20.5371 20.189 20.189C20.5372 19.8408 20.7743 19.3972 20.8704 18.9142C20.9664 18.4313 20.9171 17.9307 20.7287 17.4758C20.5403 17.0209 20.2212 16.6321 19.8118 16.3585C19.4024 16.085 18.9212 15.939 18.4288 15.9389C17.9898 15.9411 17.5599 16.0637 17.1857 16.2933L17.1306 16.3271ZM18.4286 4.20387C18.6991 4.20387 18.9635 4.28407 19.1884 4.43434C19.4133 4.5846 19.5885 4.79818 19.692 5.04807C19.7955 5.29795 19.8226 5.57292 19.7699 5.83819C19.7171 6.10347 19.5868 6.34714 19.3956 6.53839C19.2043 6.72964 18.9607 6.85989 18.6954 6.91265C18.4301 6.96542 18.1552 6.93834 17.9053 6.83483C17.6554 6.73133 17.4418 6.55605 17.2915 6.33116C17.1413 6.10627 17.0611 5.84187 17.0611 5.5714C17.0611 5.20871 17.2051 4.86087 17.4616 4.60441C17.7181 4.34794 18.0659 4.20387 18.4286 4.20387ZM4.20393 5.5714C4.20393 5.30093 4.28413 5.03653 4.4344 4.81164C4.58466 4.58675 4.79824 4.41147 5.04813 4.30796C5.29801 4.20446 5.57298 4.17738 5.83825 4.23014C6.10353 4.28291 6.3472 4.41315 6.53845 4.60441C6.7297 4.79566 6.85995 5.03933 6.91271 5.30461C6.96548 5.56988 6.9384 5.84485 6.83489 6.09473C6.73139 6.34461 6.55611 6.55819 6.33122 6.70846C6.10633 6.85873 5.84193 6.93893 5.57146 6.93893C5.20877 6.93893 4.86093 6.79485 4.60447 6.53839C4.34801 6.28193 4.20393 5.93409 4.20393 5.5714ZM5.57146 19.7961C5.30099 19.7961 5.03659 19.7159 4.8117 19.5656C4.58681 19.4153 4.41153 19.2018 4.30802 18.9519C4.20452 18.702 4.17744 18.427 4.2302 18.1617C4.28297 17.8965 4.41321 17.6528 4.60447 17.4615C4.79572 17.2703 5.03939 17.14 5.30467 17.0873C5.56994 17.0345 5.84491 17.0616 6.09479 17.1651C6.34468 17.2686 6.55825 17.4439 6.70852 17.6688C6.85879 17.8937 6.93899 18.1581 6.93899 18.4285C6.93899 18.7912 6.79491 19.1391 6.53845 19.3955C6.28199 19.652 5.93415 19.7961 5.57146 19.7961ZM12 14.6532C11.4753 14.6532 10.9623 14.4976 10.526 14.2061C10.0896 13.9145 9.74957 13.5001 9.54875 13.0153C9.34793 12.5305 9.29539 11.997 9.39776 11.4823C9.50014 10.9677 9.75284 10.4949 10.1239 10.1238C10.495 9.75278 10.9677 9.50008 11.4824 9.3977C11.9971 9.29533 12.5306 9.34787 13.0154 9.54869C13.5002 9.74951 13.9146 10.0896 14.2061 10.5259C14.4977 10.9622 14.6533 11.4752 14.6533 12C14.6533 12.7037 14.3737 13.3785 13.8762 13.8761C13.3786 14.3737 12.7037 14.6532 12 14.6532ZM18.4286 19.7961C18.1581 19.7961 17.8937 19.7159 17.6688 19.5656C17.4439 19.4153 17.2687 19.2018 17.1652 18.9519C17.0617 18.702 17.0346 18.427 17.0873 18.1617C17.1401 17.8965 17.2704 17.6528 17.4616 17.4615C17.6529 17.2703 17.8965 17.14 18.1618 17.0873C18.4271 17.0345 18.702 17.0616 18.9519 17.1651C19.2018 17.2686 19.4154 17.4439 19.5657 17.6688C19.7159 17.8937 19.7961 18.1581 19.7961 18.4285C19.7961 18.7912 19.6521 19.1391 19.3956 19.3955C19.1391 19.652 18.7913 19.7961 18.4286 19.7961Z" fill="white"/>
<path fill-rule="evenodd" clip-rule="evenodd" d="M15.0897 14.1834L15.0498 14.2396L17.1306 16.3271L17.1857 16.2933C17.5599 16.0637 17.9898 15.9411 18.4288 15.9389C18.9212 15.939 19.4024 16.085 19.8118 16.3585C20.2212 16.6321 20.5403 17.0209 20.7287 17.4758C20.9171 17.9307 20.9664 18.4313 20.8704 18.9142C20.7743 19.3972 20.5372 19.8408 20.189 20.189C19.8408 20.5371 19.3972 20.7743 18.9143 20.8703C18.4314 20.9664 17.9308 20.9171 17.4759 20.7286C17.0209 20.5402 16.6321 20.2211 16.3586 19.8117C16.085 19.4023 15.939 18.9211 15.939 18.4288C15.9412 17.9898 16.0637 17.5598 16.2933 17.1856L16.3271 17.1305L14.2397 15.0498L14.1834 15.0896C13.5452 15.5421 12.7823 15.7851 12 15.7851C11.2178 15.7851 10.4548 15.5421 9.81663 15.0896L9.76039 15.0498L7.67291 17.1305L7.70672 17.1856C7.93633 17.5598 8.05889 17.9898 8.06107 18.4288C8.06102 18.9211 7.91501 19.4023 7.64149 19.8117C7.36793 20.2211 6.97911 20.5402 6.52419 20.7286C6.06927 20.9171 5.5687 20.9664 5.08576 20.8703C4.60282 20.7743 4.15922 20.5371 3.81104 20.189C3.46286 19.8408 3.22575 19.3972 3.12969 18.9142C3.03362 18.4313 3.08293 17.9307 3.27136 17.4758C3.45979 17.0209 3.77889 16.6321 4.18831 16.3585C4.59765 16.085 5.0789 15.939 5.57122 15.9389C6.01022 15.9411 6.44021 16.0637 6.81438 16.2933L6.86948 16.3271L8.95022 14.2396L8.91035 14.1834C8.45794 13.5452 8.21494 12.7822 8.21494 12C8.21494 11.2177 8.45794 10.4547 8.91035 9.81657L8.95022 9.76033L6.86948 7.67285L6.81438 7.70666C6.44021 7.93627 6.01022 8.05883 5.57122 8.06101C5.07891 8.06096 4.59765 7.91495 4.18831 7.64143C3.77889 7.36787 3.45979 6.97905 3.27136 6.52413C3.08293 6.06921 3.03362 5.56864 3.12969 5.0857C3.22575 4.60276 3.46286 4.15916 3.81104 3.81098C4.15922 3.4628 4.60282 3.22569 5.08576 3.12963C5.5687 3.03356 6.06927 3.08287 6.52419 3.2713C6.97911 3.45973 7.36793 3.77883 7.64149 4.18824C7.91501 4.59759 8.06102 5.07884 8.06107 5.57116C8.0589 6.01016 7.93633 6.44015 7.70672 6.81432L7.67291 6.86942L9.76039 8.95016L9.81663 8.91029C10.4548 8.45788 11.2178 8.21488 12 8.21488C12.7823 8.21488 13.5452 8.45788 14.1834 8.91029L14.2397 8.95016L16.3271 6.86942L16.2933 6.81432C16.0637 6.44015 15.9412 6.01016 15.939 5.57116C15.939 5.07884 16.085 4.59759 16.3586 4.18824C16.6321 3.77883 17.0209 3.45973 17.4759 3.2713C17.9308 3.08287 18.4314 3.03356 18.9143 3.12963C19.3972 3.22569 19.8408 3.4628 20.189 3.81098C20.5372 4.15916 20.7743 4.60276 20.8704 5.0857C20.9664 5.56864 20.9171 6.06921 20.7287 6.52413C20.5403 6.97905 20.2212 7.36787 19.8118 7.64143C19.4024 7.91495 18.9212 8.06096 18.4288 8.06101C17.9898 8.05883 17.5599 7.93627 17.1857 7.70666L17.1306 7.67285L15.0498 9.76033L15.0897 9.81657C15.5421 10.4547 15.7851 11.2177 15.7851 12C15.7851 12.7822 15.5421 13.5452 15.0897 14.1834ZM18.4286 4.20387C18.6991 4.20387 18.9635 4.28407 19.1884 4.43434C19.4133 4.5846 19.5885 4.79818 19.692 5.04807C19.7955 5.29795 19.8226 5.57292 19.7699 5.83819C19.7171 6.10347 19.5868 6.34714 19.3956 6.53839C19.2043 6.72964 18.9607 6.85989 18.6954 6.91265C18.4301 6.96542 18.1552 6.93834 17.9053 6.83483C17.6554 6.73133 17.4418 6.55605 17.2915 6.33116C17.1413 6.10627 17.0611 5.84187 17.0611 5.5714C17.0611 5.20871 17.2051 4.86087 17.4616 4.60441C17.7181 4.34794 18.0659 4.20387 18.4286 4.20387ZM4.20393 5.5714C4.20393 5.30093 4.28413 5.03653 4.4344 4.81164C4.58466 4.58675 4.79824 4.41147 5.04813 4.30796C5.29801 4.20446 5.57298 4.17738 5.83825 4.23014C6.10353 4.28291 6.3472 4.41315 6.53845 4.60441C6.7297 4.79566 6.85995 5.03933 6.91271 5.30461C6.96548 5.56988 6.9384 5.84485 6.83489 6.09473C6.73139 6.34461 6.55611 6.55819 6.33122 6.70846C6.10633 6.85873 5.84193 6.93893 5.57146 6.93893C5.20877 6.93893 4.86093 6.79485 4.60447 6.53839C4.34801 6.28193 4.20393 5.93409 4.20393 5.5714ZM5.57146 19.7961C5.30099 19.7961 5.03659 19.7159 4.8117 19.5656C4.58681 19.4153 4.41153 19.2018 4.30802 18.9519C4.20452 18.702 4.17744 18.427 4.2302 18.1617C4.28297 17.8965 4.41321 17.6528 4.60447 17.4615C4.79572 17.2703 5.03939 17.14 5.30467 17.0873C5.56994 17.0345 5.84491 17.0616 6.09479 17.1651C6.34468 17.2686 6.55825 17.4439 6.70852 17.6688C6.85879 17.8937 6.93899 18.1581 6.93899 18.4285C6.93899 18.7912 6.79491 19.1391 6.53845 19.3955C6.28199 19.652 5.93415 19.7961 5.57146 19.7961ZM12 14.6532C11.4753 14.6532 10.9623 14.4976 10.526 14.2061C10.0896 13.9145 9.74957 13.5001 9.54875 13.0153C9.34793 12.5305 9.29539 11.997 9.39776 11.4823C9.50014 10.9677 9.75284 10.4949 10.1239 10.1238C10.495 9.75278 10.9677 9.50008 11.4824 9.3977C11.9971 9.29533 12.5306 9.34787 13.0154 9.54869C13.5002 9.74951 13.9146 10.0896 14.2061 10.5259C14.4977 10.9622 14.6533 11.4752 14.6533 12C14.6533 12.7037 14.3737 13.3785 13.8762 13.8761C13.3786 14.3737 12.7037 14.6532 12 14.6532ZM18.4286 19.7961C18.1581 19.7961 17.8937 19.7159 17.6688 19.5656C17.4439 19.4153 17.2687 19.2018 17.1652 18.9519C17.0617 18.702 17.0346 18.427 17.0873 18.1617C17.1401 17.8965 17.2704 17.6528 17.4616 17.4615C17.6529 17.2703 17.8965 17.14 18.1618 17.0873C18.4271 17.0345 18.702 17.0616 18.9519 17.1651C19.2018 17.2686 19.4154 17.4439 19.5657 17.6688C19.7159 17.8937 19.7961 18.1581 19.7961 18.4285C19.7961 18.7912 19.6521 19.1391 19.3956 19.3955C19.1391 19.652 18.7913 19.7961 18.4286 19.7961Z" fill="#2E2525"/>
</svg>
